<svg xmlns="http://www.w3.org/2000/svg" xmlns:xlink="http://www.w3.org/1999/xlink" x="0px" y="0px" viewBox="0 0 44 44" style="enable-background:new 0 0 44 44;" xml:space="preserve">
<g id="page_x5F_settings">
</g>
<g id="pc_x5F_report">
</g>
<g id="chat">
</g>
<g id="marketing">
</g>
<g id="analytics">
</g>
<g id="search_1_">
	<g>
		<path style="fill:#EBEEF7;" d="M29.847,13.91C28.951,7.742,24.004,2.892,17.819,2.115c-0.606-0.076-1.21-0.114-1.811-0.114    c-3.718,0-7.254,1.446-9.908,4.1C3.019,9.182,1.566,13.454,2.115,17.82c0.777,6.185,5.627,11.131,11.795,12.028    c3.243,0.474,6.425-0.15,9.199-1.799c1.469-0.874,3.233-0.927,4.705-0.235c-0.693-1.472-0.639-3.235,0.234-4.705    C29.697,20.334,30.319,17.153,29.847,13.91z"></path>
		<g>
			<circle style="fill:#ACD6F2;" cx="16" cy="16" r="10"></circle>
			<path style="fill:#004463;" d="M16,28C9.383,28,4,22.617,4,16S9.383,4,16,4s12,5.383,12,12S22.617,28,16,28z M16,6     C10.486,6,6,10.486,6,16s4.486,10,10,10s10-4.486,10-10S21.514,6,16,6z"></path>
		</g>
		<g>
			<path style="fill:#D3EEFB;" d="M8,17c-0.552,0-1-0.448-1-1c0-4.962,4.038-9,9-9c0.552,0,1,0.448,1,1s-0.448,1-1,1     c-3.86,0-7,3.14-7,7C9,16.552,8.552,17,8,17z"></path>
		</g>
		<path style="fill:#EF4C4E;" d="M39,42.981c-0.648,0-1.27-0.251-1.707-0.688L28.5,33.5l5-5l8.793,8.793    C42.742,37.742,43,38.364,43,39s-0.258,1.258-0.707,1.707l-1.586,1.586C40.27,42.73,39.648,42.981,39,42.981z"></path>
		<path style="fill:#004463;" d="M43,36.586l-8.793-8.793c-0.391-0.391-1.023-0.391-1.414,0L31.5,29.086l-1.29-1.29    c-0.968-0.968-1.15-2.476-0.443-3.666c1.886-3.172,2.598-6.806,2.06-10.508C30.801,6.566,25.143,1.018,18.068,0.13    c-4.98-0.626-9.86,1.034-13.382,4.556c-3.522,3.522-5.183,8.4-4.556,13.382c0.889,7.074,6.437,12.732,13.492,13.758    c3.703,0.537,7.337-0.175,10.508-2.06c1.191-0.706,2.698-0.524,3.666,0.443l1.29,1.29l-1.293,1.293    c-0.391,0.391-0.391,1.023,0,1.414L36.586,43c0.645,0.645,1.502,1,2.414,1s1.77-0.355,2.414-1L43,41.414    c0.645-0.645,1-1.502,1-2.414S43.645,37.23,43,36.586z M27.813,27.813c-1.471-0.692-3.235-0.639-4.705,0.235    c-2.774,1.649-5.956,2.273-9.199,1.799C7.742,28.95,2.892,24.004,2.114,17.819C1.565,13.453,3.019,9.182,6.1,6.1    C8.754,3.446,12.29,2,16.008,2c0.6,0,1.204,0.038,1.811,0.114C24.004,2.891,28.95,7.741,29.847,13.91    c0.472,3.243-0.15,6.424-1.799,9.199C27.175,24.578,27.12,26.341,27.813,27.813z M41.586,40L40,41.586    c-0.526,0.526-1.474,0.526-2,0L29.914,33.5l3.586-3.586L41.586,38C41.849,38.263,42,38.628,42,39    C42,39.372,41.849,39.737,41.586,40z"></path>
		<g>
			<path style="fill:#DC343F;" d="M41.586,38.086L40,39.672c-0.535,0.533-1.465,0.533-2,0l-7.129-7.129L29.914,33.5L38,41.586     c0.535,0.533,1.465,0.533,2,0L41.586,40C41.853,39.732,42,39.378,42,39c0-0.36-0.142-0.694-0.385-0.957     C41.603,38.056,41.598,38.073,41.586,38.086z"></path>
		</g>
		<g>
			<path style="fill:#DD333F;" d="M17,21h-2c-0.552,0-1-0.448-1-1v-9c0-0.552,0.448-1,1-1h2c0.552,0,1,0.448,1,1v9     C18,20.552,17.552,21,17,21z"></path>
		</g>
		<g>
			<path style="fill:#0E9247;" d="M22,21h-2c-0.552,0-1-0.448-1-1v-6c0-0.552,0.448-1,1-1h2c0.552,0,1,0.448,1,1v6     C23,20.552,22.552,21,22,21z"></path>
		</g>
		<g>
			<path style="fill:#1470B7;" d="M12,21h-2c-0.552,0-1-0.448-1-1v-4c0-0.552,0.448-1,1-1h2c0.552,0,1,0.448,1,1v4     C13,20.552,12.552,21,12,21z"></path>
		</g>
	</g>
</g>
<g id="funnel">
</g>
<g id="tag">
</g>
<g id="eye_x5F_tracking">
</g>
<g id="report">
</g>
<g id="localisation">
</g>
<g id="mobile">
</g>
<g id="intenet">
</g>
<g id="pie_x5F_chart">
</g>
<g id="page_x5F_search">
</g>
<g id="code">
</g>
<g id="code_x5F_check">
</g>
<g id="link">
</g>
<g id="monetisation">
</g>
<g id="connection">
</g>
<g id="server">
</g>
<g id="white_x5F_hat">
</g>
<g id="ppk">
</g>
<g id="page_x5F_test">
</g>
<g id="money">
</g>
<g id="page_x5F_quality">
</g>
<g id="page_x5F_speed">
</g>
<g id="money_x5F_bag">
</g>
<g id="trolley">
</g>
<g id="adaptive">
</g>
<g id="console">
</g>
<g id="briefcase">
</g>
<g id="cloud">
</g>
<g id="chess">
</g>
<g id="stopwatch">
</g>
<g id="test">
</g>
<g id="user">
</g>
<g id="social">
</g>
<g id="like">
</g>
<g id="crown">
</g>
<g id="target">
</g>
<g id="images">
</g>
<g id="calendar">
</g>
<g id="newspaper">
</g>
<g id="pencil">
</g>
<g id="email">
</g>
<g id="rocket">
</g>
<g id="trophy">
</g>
<g id="shop">
</g>
<g id="support">
</g>
</svg>