<svg xmlns="http://www.w3.org/2000/svg" xmlns:xlink="http://www.w3.org/1999/xlink" x="0px" y="0px" viewBox="0 0 44 44" style="enable-background:new 0 0 44 44;" xml:space="preserve">
<g id="page_x5F_settings">
</g>
<g id="pc_x5F_report">
</g>
<g id="chat">
</g>
<g id="marketing">
</g>
<g id="analytics">
</g>
<g id="search_1_">
</g>
<g id="funnel">
</g>
<g id="tag">
</g>
<g id="eye_x5F_tracking">
</g>
<g id="report">
</g>
<g id="localisation">
</g>
<g id="mobile">
</g>
<g id="intenet">
</g>
<g id="pie_x5F_chart">
</g>
<g id="page_x5F_search">
</g>
<g id="code">
</g>
<g id="code_x5F_check">
</g>
<g id="link">
</g>
<g id="monetisation">
</g>
<g id="connection">
</g>
<g id="server">
</g>
<g id="white_x5F_hat">
</g>
<g id="ppk">
</g>
<g id="page_x5F_test">
	<g>
		<path style="fill:#EBEEF7;" d="M42,9H2v27c0,0.551,0.449,1,1,1h38c0.551,0,1-0.449,1-1V9z"></path>
		<path style="fill:#AFC3D7;" d="M42,4c0-0.551-0.449-1-1-1H3C2.449,3,2,3.449,2,4v3h40V4z"></path>
		<path style="fill:#004463;" d="M41,1H3C1.346,1,0,2.346,0,4v32c0,1.654,1.346,3,3,3h38c1.654,0,3-1.346,3-3V4    C44,2.346,42.654,1,41,1z M2,4c0-0.551,0.449-1,1-1h38c0.551,0,1,0.449,1,1v3H2V4z M42,36c0,0.551-0.449,1-1,1H3    c-0.551,0-1-0.449-1-1V9h40V36z"></path>
		<g>
			<circle style="fill:#004463;" cx="5" cy="5" r="1"></circle>
		</g>
		<g>
			<circle style="fill:#004463;" cx="9" cy="5" r="1"></circle>
		</g>
		<g>
			<circle style="fill:#004463;" cx="13" cy="5" r="1"></circle>
		</g>
		<g>
			<circle style="fill:#FFFFFF;" cx="22" cy="31" r="10"></circle>
			<g>
				<path style="fill:#C3D6E4;" d="M22,23v8l5.657,5.657C29.105,35.209,30,33.209,30,31C30,26.582,26.418,23,22,23z"></path>
			</g>
			<g>
				<path style="fill:#EF4D4E;" d="M27,37c-0.256,0-0.512-0.098-0.707-0.293l-7-7c-0.391-0.391-0.391-1.023,0-1.414      s1.023-0.391,1.414,0l7,7c0.391,0.391,0.391,1.023,0,1.414C27.512,36.902,27.256,37,27,37z"></path>
			</g>
			<g>
				<circle style="fill:#004463;" cx="22" cy="31" r="2"></circle>
			</g>
			<g>
				<circle style="fill:#004463;" cx="14" cy="31" r="1"></circle>
			</g>
			<g>
				<circle style="fill:#004463;" cx="22" cy="39" r="1"></circle>
			</g>
			<g>
				<circle style="fill:#004463;" cx="22" cy="23" r="1"></circle>
			</g>
			<g>
				<circle style="fill:#004463;" cx="30" cy="31" r="1"></circle>
			</g>
			<path style="fill:#004463;" d="M32,22.414l0.293,0.293C32.488,22.902,32.744,23,33,23s0.512-0.098,0.707-0.293     c0.391-0.391,0.391-1.023,0-1.414l-2-2c-0.391-0.391-1.023-0.391-1.414,0s-0.391,1.023,0,1.414L30.586,21l-0.845,0.845     c-1.852-1.569-4.183-2.582-6.741-2.795V17h1c0.552,0,1-0.448,1-1s-0.448-1-1-1h-4c-0.552,0-1,0.448-1,1s0.448,1,1,1h1v2.051     c-2.558,0.213-4.888,1.226-6.741,2.795L13.414,21l0.293-0.293c0.391-0.391,0.391-1.023,0-1.414s-1.023-0.391-1.414,0l-2,2     c-0.391,0.391-0.391,1.023,0,1.414C10.488,22.902,10.744,23,11,23s0.512-0.098,0.707-0.293L12,22.414l0.845,0.845     C11.074,25.351,10,28.051,10,31c0,6.617,5.383,12,12,12s12-5.383,12-12c0-2.949-1.074-5.649-2.845-7.741L32,22.414z M22,41     c-5.514,0-10-4.486-10-10s4.486-10,10-10s10,4.486,10,10S27.514,41,22,41z"></path>
		</g>
		<g>
			<path style="fill:#C3D6E4;" d="M32.382,37h2.452c0.524-1.348,0.823-2.809,0.823-4.343c0-3.736-1.708-7.072-4.384-9.273     C32.976,25.456,34,28.108,34,31C34,33.188,33.405,35.234,32.382,37z"></path>
		</g>
	</g>
</g>
<g id="money">
</g>
<g id="page_x5F_quality">
</g>
<g id="page_x5F_speed">
</g>
<g id="money_x5F_bag">
</g>
<g id="trolley">
</g>
<g id="adaptive">
</g>
<g id="console">
</g>
<g id="briefcase">
</g>
<g id="cloud">
</g>
<g id="chess">
</g>
<g id="stopwatch">
</g>
<g id="test">
</g>
<g id="user">
</g>
<g id="social">
</g>
<g id="like">
</g>
<g id="crown">
</g>
<g id="target">
</g>
<g id="images">
</g>
<g id="calendar">
</g>
<g id="newspaper">
</g>
<g id="pencil">
</g>
<g id="email">
</g>
<g id="rocket">
</g>
<g id="trophy">
</g>
<g id="shop">
</g>
<g id="support">
</g>
</svg>