<svg xmlns="http://www.w3.org/2000/svg" xmlns:xlink="http://www.w3.org/1999/xlink" x="0px" y="0px" viewBox="0 0 44 44" style="enable-background:new 0 0 44 44;" xml:space="preserve">
<g id="page_x5F_settings">
</g>
<g id="pc_x5F_report">
</g>
<g id="chat">
</g>
<g id="marketing">
</g>
<g id="analytics">
</g>
<g id="search_1_">
</g>
<g id="funnel">
</g>
<g id="tag">
</g>
<g id="eye_x5F_tracking">
</g>
<g id="report">
</g>
<g id="localisation">
</g>
<g id="mobile">
</g>
<g id="intenet">
</g>
<g id="pie_x5F_chart">
</g>
<g id="page_x5F_search">
</g>
<g id="code">
</g>
<g id="code_x5F_check">
</g>
<g id="link">
</g>
<g id="monetisation">
</g>
<g id="connection">
</g>
<g id="server">
</g>
<g id="white_x5F_hat">
</g>
<g id="ppk">
</g>
<g id="page_x5F_test">
</g>
<g id="money">
</g>
<g id="page_x5F_quality">
</g>
<g id="page_x5F_speed">
	<g>
		<path style="fill:#D3E2EC;" d="M42,11H2v25c0,0.551,0.449,1,1,1h38c0.551,0,1-0.449,1-1V11z"></path>
		<path style="fill:#AFC3D7;" d="M42,6c0-0.551-0.449-1-1-1H3C2.449,5,2,5.449,2,6v3h40V6z"></path>
		<path style="fill:#004463;" d="M41,3H3C1.346,3,0,4.346,0,6v30c0,1.654,1.346,3,3,3h38c1.654,0,3-1.346,3-3V6    C44,4.346,42.654,3,41,3z M2,6c0-0.551,0.449-1,1-1h38c0.551,0,1,0.449,1,1v3H2V6z M42,36c0,0.551-0.449,1-1,1H3    c-0.551,0-1-0.449-1-1V11h40V36z"></path>
		<g>
			<circle style="fill:#004463;" cx="5" cy="7" r="1"></circle>
		</g>
		<g>
			<circle style="fill:#004463;" cx="9" cy="7" r="1"></circle>
		</g>
		<g>
			<circle style="fill:#004463;" cx="13" cy="7" r="1"></circle>
		</g>
		<g>
			<g>
				<rect x="5" y="13" style="fill:#C3D6E4;" width="34" height="10"></rect>
			</g>
		</g>
		<g>
			<g>
				<rect x="5" y="25" style="fill:#C3D6E4;" width="15" height="10"></rect>
			</g>
		</g>
		<g>
			<g>
				<rect x="22" y="25" style="fill:#C3D6E4;" width="17" height="10"></rect>
			</g>
		</g>
		<path style="fill:#EBEEF7;" d="M9,36.396V38c0,0.551,0.449,1,1,1h24c0.551,0,1-0.449,1-1v-2c0-3.589-1.431-6.93-4.028-9.408    c-2.596-2.477-6.01-3.75-9.602-3.577C14.434,23.341,9,29.219,9,36.396z"></path>
		<path style="fill:#004463;" d="M34,41H10c-1.654,0-3-1.346-3-3v-1.604c0-8.247,6.271-15.001,14.276-15.378l0,0    c4.139-0.185,8.081,1.271,11.076,4.128C35.35,28.004,37,31.859,37,36v2C37,39.654,35.654,41,34,41z M21.37,23.015    C14.434,23.341,9,29.219,9,36.396V38c0,0.551,0.449,1,1,1h24c0.551,0,1-0.449,1-1v-2c0-3.589-1.431-6.93-4.028-9.408    C28.376,24.115,24.962,22.842,21.37,23.015L21.37,23.015z M21.323,22.016h0.01H21.323z"></path>
		<g>
			<circle style="fill:#3BB44A;" cx="12" cy="36" r="1"></circle>
		</g>
		<g>
			<circle style="fill:#F16A56;" cx="32" cy="36" r="1"></circle>
		</g>
		<g>
			
				<ellipse transform="matrix(0.7071 -0.7071 0.7071 0.7071 -16.0833 19.0294)" style="fill:#88C663;" cx="14.929" cy="28.929" rx="1" ry="1"></ellipse>
		</g>
		<g>
			
				<ellipse transform="matrix(0.7071 -0.7071 0.7071 0.7071 -11.9411 29.0294)" style="fill:#F69348;" cx="29.071" cy="28.929" rx="1" ry="1"></ellipse>
		</g>
		<g>
			<circle style="fill:#FFCA5B;" cx="22" cy="26" r="1"></circle>
		</g>
		<g>
			<path style="fill:#EF4D4E;" d="M20.366,34.892L26,27l-2.1,9.458c-0.236,1.061-1.289,1.73-2.353,1.495     c-1.064-0.235-1.735-1.285-1.5-2.346C20.105,35.345,20.22,35.099,20.366,34.892z"></path>
		</g>
		<g>
			<circle style="fill:#C61C31;" cx="22" cy="36" r="1"></circle>
		</g>
	</g>
</g>
<g id="money_x5F_bag">
</g>
<g id="trolley">
</g>
<g id="adaptive">
</g>
<g id="console">
</g>
<g id="briefcase">
</g>
<g id="cloud">
</g>
<g id="chess">
</g>
<g id="stopwatch">
</g>
<g id="test">
</g>
<g id="user">
</g>
<g id="social">
</g>
<g id="like">
</g>
<g id="crown">
</g>
<g id="target">
</g>
<g id="images">
</g>
<g id="calendar">
</g>
<g id="newspaper">
</g>
<g id="pencil">
</g>
<g id="email">
</g>
<g id="rocket">
</g>
<g id="trophy">
</g>
<g id="shop">
</g>
<g id="support">
</g>
</svg>