<svg xmlns="http://www.w3.org/2000/svg" xmlns:xlink="http://www.w3.org/1999/xlink" x="0px" y="0px" viewBox="0 0 44 44" style="enable-background:new 0 0 44 44;" xml:space="preserve">
<g id="page_x5F_settings">
</g>
<g id="pc_x5F_report">
</g>
<g id="chat">
</g>
<g id="marketing">
</g>
<g id="analytics">
</g>
<g id="search_1_">
</g>
<g id="funnel">
</g>
<g id="tag">
</g>
<g id="eye_x5F_tracking">
</g>
<g id="report">
</g>
<g id="localisation">
</g>
<g id="mobile">
</g>
<g id="intenet">
</g>
<g id="pie_x5F_chart">
</g>
<g id="page_x5F_search">
</g>
<g id="code">
</g>
<g id="code_x5F_check">
</g>
<g id="link">
</g>
<g id="monetisation">
</g>
<g id="connection">
</g>
<g id="server">
</g>
<g id="white_x5F_hat">
</g>
<g id="ppk">
</g>
<g id="page_x5F_test">
</g>
<g id="money">
</g>
<g id="page_x5F_quality">
</g>
<g id="page_x5F_speed">
</g>
<g id="money_x5F_bag">
</g>
<g id="trolley">
</g>
<g id="adaptive">
</g>
<g id="console">
</g>
<g id="briefcase">
</g>
<g id="cloud">
</g>
<g id="chess">
</g>
<g id="stopwatch">
</g>
<g id="test">
</g>
<g id="user">
</g>
<g id="social">
</g>
<g id="like">
</g>
<g id="crown">
</g>
<g id="target">
</g>
<g id="images">
	<g>
		<path style="fill:#ACD6F2;" d="M22.771,23.961C27.006,20.49,31.306,19,37,19c1.914,0,3.238,0.072,5,0.445V5c0-0.551-0.449-1-1-1H7    C6.449,4,6,4.449,6,5v17.17c2.129-0.788,4.36-1.176,6.583-1.176C16.151,20.994,19.7,21.997,22.771,23.961z"></path>
		<path style="fill:#8EC861;" d="M6,24.32V31c0,0.551,0.449,1,1,1h34c0.551,0,1-0.449,1-1v-9.506C40.181,21.074,38.95,21,37,21    c-5.435,0-9.475,1.485-13.507,4.967c-0.346,0.299-0.851,0.325-1.227,0.062C17.517,22.707,11.339,22.071,6,24.32z"></path>
		<g>
			<g>
				<path style="fill:#AAD59A;" d="M23.267,27.029c0.373,0.262,0.879,0.237,1.227-0.062c3.98-3.436,7.969-5.898,13.299-5.961      C37.539,21.002,37.278,21,37,21c-5.436,0-9.475,1.485-13.507,4.967c-0.348,0.3-0.854,0.324-1.227,0.062      C17.517,22.706,11.338,22.072,6,24.32v1.297C11.316,23.76,18.804,23.907,23.267,27.029z"></path>
			</g>
		</g>
		<path style="fill:#D3E2EC;" d="M2.094,14.233c-0.115,0.238-0.126,0.531-0.03,0.807L4,20.593v-7.238l-1.509,0.512    C2.275,13.94,2.156,14.107,2.094,14.233z"></path>
		<path style="fill:#D3E2EC;" d="M11.595,39.964L29.141,34H8.668l1.846,5.291C10.69,39.798,11.184,40.109,11.595,39.964z"></path>
		<circle style="fill:#FFC95C;" cx="18" cy="12" r="2"></circle>
		<path style="fill:#004463;" d="M22,11h-0.142c-0.094-0.363-0.238-0.704-0.425-1.019l0.102-0.102c0.391-0.391,0.391-1.023,0-1.414    s-1.023-0.391-1.414,0l-0.102,0.102C19.703,8.38,19.363,8.236,19,8.142V8c0-0.552-0.448-1-1-1s-1,0.448-1,1v0.142    c-0.363,0.094-0.704,0.238-1.019,0.425l-0.102-0.102c-0.391-0.391-1.023-0.391-1.414,0s-0.391,1.023,0,1.414l0.102,0.102    c-0.186,0.316-0.33,0.656-0.425,1.019H14c-0.552,0-1,0.448-1,1s0.448,1,1,1h0.142c0.094,0.363,0.238,0.704,0.425,1.019    l-0.102,0.102c-0.391,0.391-0.391,1.023,0,1.414c0.195,0.195,0.451,0.293,0.707,0.293s0.512-0.098,0.707-0.293l0.102-0.102    c0.316,0.186,0.656,0.33,1.019,0.425V16c0,0.552,0.448,1,1,1s1-0.448,1-1v-0.142c0.363-0.094,0.704-0.238,1.019-0.425l0.102,0.102    c0.195,0.195,0.451,0.293,0.707,0.293s0.512-0.098,0.707-0.293c0.391-0.391,0.391-1.023,0-1.414l-0.102-0.102    c0.186-0.316,0.33-0.656,0.425-1.019H22c0.552,0,1-0.448,1-1S22.552,11,22,11z M18,14c-1.103,0-2-0.897-2-2s0.897-2,2-2    s2,0.897,2,2S19.103,14,18,14z"></path>
		<g>
			<polygon style="fill:#C3D6E4;" points="23.258,36 29.142,34 8.668,34 9.366,36    "></polygon>
		</g>
		<g>
			<path style="fill:#004463;" d="M34,15h-6c-0.552,0-1-0.448-1-1s0.448-1,1-1h6c0.552,0,1,0.448,1,1S34.552,15,34,15z"></path>
		</g>
		<g>
			<path style="fill:#004463;" d="M29,11h-4c-0.552,0-1-0.448-1-1s0.448-1,1-1h4c0.552,0,1,0.448,1,1S29.552,11,29,11z"></path>
		</g>
		<path style="fill:#004463;" d="M41,2H7C5.346,2,4,3.346,4,5v6.243l-2.153,0.73c-0.678,0.231-1.229,0.723-1.551,1.385    c-0.347,0.713-0.391,1.567-0.12,2.341L4,26.669V31c0,1.494,1.101,2.727,2.533,2.953l2.092,5.994C9.059,41.201,10.199,42,11.387,42    c0.285,0,0.573-0.046,0.854-0.143L35.355,34H41c1.654,0,3-1.346,3-3V5C44,3.346,42.654,2,41,2z M2.064,15.04    c-0.096-0.275-0.085-0.569,0.03-0.807c0.062-0.126,0.181-0.293,0.397-0.367L4,13.355v7.238L2.064,15.04z M11.595,39.964    c-0.41,0.145-0.905-0.167-1.081-0.674L8.668,34h20.473L11.595,39.964z M42,29v2c0,0.551-0.449,1-1,1H7.26H7c-0.551,0-1-0.449-1-1    v-6.67c5.34-2.249,11.516-1.624,16.267,1.699c0.003,0.002,0.015,0.011,0.018,0.013c0.716,0.478,1.388,1.096,2.038,1.694    C24.515,27.913,24.758,28,24.999,28c0.27,0,0.539-0.108,0.736-0.323c0.374-0.407,0.348-1.039-0.059-1.413    c-0.376-0.346-0.786-0.712-1.217-1.071C28.18,22.279,31.998,21,37,21c1.949,0,3.183,0.075,5,0.495V29z M42,19.445    C40.238,19.072,38.914,19,37,19c-5.694,0-9.994,1.49-14.229,4.961c-3.071-1.964-6.62-2.967-10.188-2.967    c-2.223,0-4.454,0.389-6.583,1.176V5c0-0.551,0.449-1,1-1h34c0.551,0,1,0.449,1,1V19.445z"></path>
	</g>
</g>
<g id="calendar">
</g>
<g id="newspaper">
</g>
<g id="pencil">
</g>
<g id="email">
</g>
<g id="rocket">
</g>
<g id="trophy">
</g>
<g id="shop">
</g>
<g id="support">
</g>
</svg>