<svg xmlns="http://www.w3.org/2000/svg" xmlns:xlink="http://www.w3.org/1999/xlink" x="0px" y="0px" viewBox="0 0 44 44" style="enable-background:new 0 0 44 44;" xml:space="preserve">
<g id="page_x5F_settings">
</g>
<g id="pc_x5F_report">
</g>
<g id="chat">
</g>
<g id="marketing">
</g>
<g id="analytics">
</g>
<g id="search_1_">
</g>
<g id="funnel">
</g>
<g id="tag">
</g>
<g id="eye_x5F_tracking">
</g>
<g id="report">
</g>
<g id="localisation">
</g>
<g id="mobile">
</g>
<g id="intenet">
</g>
<g id="pie_x5F_chart">
</g>
<g id="page_x5F_search">
</g>
<g id="code">
</g>
<g id="code_x5F_check">
</g>
<g id="link">
</g>
<g id="monetisation">
</g>
<g id="connection">
</g>
<g id="server">
</g>
<g id="white_x5F_hat">
</g>
<g id="ppk">
</g>
<g id="page_x5F_test">
</g>
<g id="money">
</g>
<g id="page_x5F_quality">
</g>
<g id="page_x5F_speed">
</g>
<g id="money_x5F_bag">
</g>
<g id="trolley">
</g>
<g id="adaptive">
</g>
<g id="console">
</g>
<g id="briefcase">
</g>
<g id="cloud">
	<g>
		<path style="fill:#EBEEF7;" d="M35,11c-0.397,0-0.805,0.039-1.245,0.118c-0.497,0.09-0.988-0.21-1.135-0.698    C31.49,6.64,27.945,4,24,4c-3.634,0-6.892,2.166-8.3,5.517c-0.128,0.305-0.397,0.526-0.721,0.592    c-0.324,0.066-0.659-0.032-0.896-0.261C13.517,9.301,12.777,9,12,9c-1.654,0-3,1.346-3,3c0,0.552-0.448,1-1,1    c-3.309,0-6,2.691-6,6s2.691,6,6,6h27c3.86,0,7-3.14,7-7S38.86,11,35,11z"></path>
		<g>
			<path style="fill:#D3E2EC;" d="M9.629,13.23C11.068,14.326,12,16.052,12,18c0,3.314-2.686,6-6,6c-0.565,0-1.11-0.084-1.629-0.23     C5.379,24.539,6.634,25,8,25c3.314,0,6-2.686,6-6C14,16.252,12.15,13.94,9.629,13.23z"></path>
		</g>
		<g>
			<path style="fill:#D3E2EC;" d="M37.069,11.311C38.841,12.581,40,14.653,40,17c0,3.866-3.134,7-7,7h-9l-1,1h12     c3.866,0,7-3.134,7-7C42,14.854,39.925,12.194,37.069,11.311z"></path>
		</g>
		<g>
			<circle style="fill:#004463;" cx="22" cy="41" r="1"></circle>
			<circle style="fill:#004463;" cx="33" cy="36" r="1"></circle>
			<path style="fill:#004463;" d="M22,29c-0.552,0-1,0.448-1,1v8c0,0.552,0.448,1,1,1s1-0.448,1-1v-8C23,29.448,22.552,29,22,29z"></path>
			<path style="fill:#004463;" d="M30,35h-2c-0.551,0-1-0.449-1-1v-4c0-0.552-0.448-1-1-1s-1,0.448-1,1v4c0,1.654,1.346,3,3,3h2     c0.552,0,1-0.448,1-1S30.552,35,30,35z"></path>
			<circle style="fill:#004463;" cx="11" cy="36" r="1"></circle>
			<path style="fill:#004463;" d="M18,29c-0.552,0-1,0.448-1,1v4c0,0.551-0.449,1-1,1h-2c-0.552,0-1,0.448-1,1s0.448,1,1,1h2     c1.654,0,3-1.346,3-3v-4C19,29.448,18.552,29,18,29z"></path>
		</g>
		<g>
			<path style="fill:#004463;" d="M19.075,10.571c-0.197,0-0.397-0.058-0.571-0.18c-0.453-0.316-0.564-0.939-0.248-1.393     C19.566,7.121,21.713,6,24,6c0.552,0,1,0.448,1,1s-0.448,1-1,1c-1.634,0-3.168,0.801-4.104,2.143     C19.701,10.422,19.391,10.571,19.075,10.571z"></path>
		</g>
		<path style="fill:#004463;" d="M35,9c-0.245,0-0.492,0.011-0.743,0.033C32.635,4.852,28.534,2,24,2    c-4.021,0-7.665,2.169-9.596,5.619C13.673,7.215,12.851,7,12,7c-2.433,0-4.465,1.747-4.91,4.051C3.105,11.504,0,14.896,0,19    c0,4.411,3.589,8,8,8h27c4.962,0,9-4.038,9-9S39.962,9,35,9z M35,25H23.89c1.3-1.272,2.11-3.042,2.11-5c0-0.552-0.448-1-1-1    s-1,0.448-1,1c0,2.757-2.243,5-5,5H8c-3.309,0-6-2.691-6-6s2.691-6,6-6c1.603,0,3.109,0.624,4.243,1.757    c0.195,0.195,0.451,0.293,0.707,0.293s0.512-0.098,0.707-0.293c0.391-0.39,0.391-1.023,0-1.414    c-1.234-1.235-2.803-2.007-4.501-2.251C9.543,9.883,10.664,9,12,9c0.777,0,1.517,0.301,2.083,0.849    c0.237,0.229,0.572,0.327,0.896,0.261c0.324-0.066,0.593-0.288,0.721-0.592C17.108,6.166,20.366,4,24,4    c3.93,0,7.462,2.62,8.606,6.378C32.864,11.224,33,12.105,33,13c0,0.922-0.139,1.831-0.412,2.701    c-0.166,0.527,0.127,1.088,0.654,1.254c0.1,0.031,0.201,0.046,0.3,0.046c0.425,0,0.819-0.273,0.954-0.701    C34.831,15.237,35,14.126,35,13c0-0.672-0.068-1.337-0.188-1.991C34.874,11.007,34.938,11,35,11c3.86,0,7,3.14,7,7S38.86,25,35,25    z"></path>
	</g>
</g>
<g id="chess">
</g>
<g id="stopwatch">
</g>
<g id="test">
</g>
<g id="user">
</g>
<g id="social">
</g>
<g id="like">
</g>
<g id="crown">
</g>
<g id="target">
</g>
<g id="images">
</g>
<g id="calendar">
</g>
<g id="newspaper">
</g>
<g id="pencil">
</g>
<g id="email">
</g>
<g id="rocket">
</g>
<g id="trophy">
</g>
<g id="shop">
</g>
<g id="support">
</g>
</svg>