<svg xmlns="http://www.w3.org/2000/svg" xmlns:xlink="http://www.w3.org/1999/xlink" x="0px" y="0px" viewBox="0 0 44 44" style="enable-background:new 0 0 44 44;" xml:space="preserve">
<g id="page_x5F_settings">
</g>
<g id="pc_x5F_report">
</g>
<g id="chat">
</g>
<g id="marketing">
</g>
<g id="analytics">
</g>
<g id="search_1_">
</g>
<g id="funnel">
</g>
<g id="tag">
</g>
<g id="eye_x5F_tracking">
</g>
<g id="report">
	<g>
		<path style="fill:#EBEEF7;" d="M40,5H4v21c0,0.551,0.449,1,1,1h34c0.551,0,1-0.449,1-1V5z"></path>
		<g>
			<path style="fill:#CCD9E4;" d="M4,5v2h32c1.105,0,2,0.895,2,2v18h1c0.552,0,1-0.448,1-1V5H4z"></path>
		</g>
		<path style="fill:#004463;" d="M43,3H24V2c0-0.552-0.448-1-1-1s-1,0.448-1,1v1H1C0.448,3,0,3.448,0,4s0.448,1,1,1h1v21    c0,1.654,1.346,3,3,3h12.277L10.42,41H10c-0.552,0-1,0.448-1,1s0.448,1,1,1h2c0.552,0,1-0.448,1-1    c0-0.324-0.164-0.598-0.402-0.781L19.58,29H21v10c-0.552,0-1,0.448-1,1s0.448,1,1,1h2c0.552,0,1-0.448,1-1s-0.448-1-1-1V29h1.42    l6.982,12.219C31.164,41.402,31,41.676,31,42c0,0.552,0.448,1,1,1h2c0.552,0,1-0.448,1-1s-0.448-1-1-1h-0.42l-6.857-12H39    c1.654,0,3-1.346,3-3V5h1c0.552,0,1-0.448,1-1S43.552,3,43,3z M40,26c0,0.551-0.449,1-1,1H5c-0.551,0-1-0.449-1-1V5h36V26z"></path>
		<g>
			<path style="fill:#004362;" d="M9,23c-0.256,0-0.512-0.098-0.707-0.293c-0.391-0.391-0.391-1.023,0-1.414l8-8     c0.391-0.391,1.023-0.391,1.414,0s0.391,1.023,0,1.414l-8,8C9.512,22.902,9.256,23,9,23z"></path>
		</g>
		<g>
			<path style="fill:#004362;" d="M28,20c-0.139,0-0.279-0.029-0.413-0.09l-11-5c-0.503-0.229-0.725-0.821-0.497-1.324     c0.229-0.503,0.824-0.725,1.324-0.497l11,5c0.503,0.229,0.725,0.821,0.497,1.324C28.743,19.782,28.379,20,28,20z"></path>
		</g>
		<g>
			<path style="fill:#004362;" d="M28,20c-0.215,0-0.431-0.069-0.613-0.21c-0.436-0.339-0.515-0.968-0.176-1.403l7-9     c0.339-0.437,0.968-0.514,1.403-0.176c0.436,0.339,0.515,0.968,0.176,1.403l-7,9C28.592,19.867,28.297,20,28,20z"></path>
		</g>
		<g>
			<circle style="fill:#F5B445;" cx="17" cy="14" r="2"></circle>
		</g>
		<g>
			<circle style="fill:#4C9BD5;" cx="28" cy="19" r="2"></circle>
		</g>
		<g>
			<circle style="fill:#88C663;" cx="35" cy="10" r="2"></circle>
		</g>
		<g>
			<circle style="fill:#EF4B4D;" cx="9" cy="22" r="2"></circle>
		</g>
	</g>
</g>
<g id="localisation">
</g>
<g id="mobile">
</g>
<g id="intenet">
</g>
<g id="pie_x5F_chart">
</g>
<g id="page_x5F_search">
</g>
<g id="code">
</g>
<g id="code_x5F_check">
</g>
<g id="link">
</g>
<g id="monetisation">
</g>
<g id="connection">
</g>
<g id="server">
</g>
<g id="white_x5F_hat">
</g>
<g id="ppk">
</g>
<g id="page_x5F_test">
</g>
<g id="money">
</g>
<g id="page_x5F_quality">
</g>
<g id="page_x5F_speed">
</g>
<g id="money_x5F_bag">
</g>
<g id="trolley">
</g>
<g id="adaptive">
</g>
<g id="console">
</g>
<g id="briefcase">
</g>
<g id="cloud">
</g>
<g id="chess">
</g>
<g id="stopwatch">
</g>
<g id="test">
</g>
<g id="user">
</g>
<g id="social">
</g>
<g id="like">
</g>
<g id="crown">
</g>
<g id="target">
</g>
<g id="images">
</g>
<g id="calendar">
</g>
<g id="newspaper">
</g>
<g id="pencil">
</g>
<g id="email">
</g>
<g id="rocket">
</g>
<g id="trophy">
</g>
<g id="shop">
</g>
<g id="support">
</g>
</svg>