<svg xmlns="http://www.w3.org/2000/svg" xmlns:xlink="http://www.w3.org/1999/xlink" x="0px" y="0px" viewBox="0 0 44 44" style="enable-background:new 0 0 44 44;" xml:space="preserve">
<g id="page_x5F_settings">
	<g>
		<path style="fill:#EBEEF7;" d="M42,8H2v27c0,0.551,0.449,1,1,1h38c0.551,0,1-0.449,1-1V8z"></path>
		<g>
			<path style="fill:#CCD9E4;" d="M18.292,32.708C17.486,31.686,17,30.4,17,29c0-3.309,2.691-6,6-6c1.4,0,2.686,0.486,3.708,1.292     C25.608,22.899,23.909,22,22,22c-3.309,0-6,2.691-6,6C16,29.909,16.899,31.608,18.292,32.708z"></path>
			<path style="fill:#CCD9E4;" d="M25.455,14.698c0.129,0.514,0.491,0.916,0.973,1.091c0.025,0.009,0.049,0.021,0.074,0.031     c-0.014-0.041-0.036-0.078-0.046-0.121c-0.22-0.88-0.76-1.604-1.472-2.082C25.195,13.941,25.357,14.304,25.455,14.698z"></path>
			<path style="fill:#CCD9E4;" d="M33.85,21.037c-0.273,0.456-0.301,0.998-0.083,1.464c0.164,0.348,0.312,0.706,0.445,1.071     c0.162,0.447,0.523,0.782,0.97,0.929c-0.126-0.34-0.263-0.676-0.416-1c-0.218-0.467-0.19-1.009,0.083-1.464     c0.842-1.403,0.622-3.192-0.536-4.35c-0.171-0.172-0.359-0.316-0.555-0.446C34.507,18.368,34.567,19.841,33.85,21.037z"></path>
			<path style="fill:#CCD9E4;" d="M37.385,26.019C37.77,26.591,38,27.271,38,28c0,1.638-1.109,3.059-2.698,3.455     c-0.514,0.128-0.915,0.491-1.09,0.973c-0.133,0.366-0.281,0.724-0.445,1.073c-0.218,0.465-0.19,1.007,0.074,1.447     c0.01,0.017,0.016,0.035,0.026,0.052H11.36c0.033,0.328-0.03,0.664-0.21,0.963c-0.007,0.012-0.011,0.025-0.018,0.037h23.734     c-0.01-0.017-0.016-0.035-0.026-0.052c-0.265-0.44-0.292-0.982-0.074-1.447c0.164-0.35,0.312-0.708,0.445-1.073     c0.175-0.482,0.576-0.844,1.09-0.973C37.891,32.059,39,30.638,39,29C39,27.771,38.375,26.664,37.385,26.019z"></path>
		</g>
		<path style="fill:#AFC3D7;" d="M42,3c0-0.551-0.449-1-1-1H3C2.449,2,2,2.449,2,3v3h40V3z"></path>
		<path style="fill:#004463;" d="M41,0H3C1.346,0,0,1.346,0,3v32c0,1.654,1.346,3,3,3h38c1.654,0,3-1.346,3-3V3    C44,1.346,42.654,0,41,0z M2,3c0-0.551,0.449-1,1-1h38c0.551,0,1,0.449,1,1v3H2V3z M42,35c0,0.551-0.449,1-1,1H3    c-0.551,0-1-0.449-1-1V8h40V35z"></path>
		<g>
			<circle style="fill:#004463;" cx="5" cy="4" r="1"></circle>
		</g>
		<g>
			<circle style="fill:#004463;" cx="9" cy="4" r="1"></circle>
		</g>
		<g>
			<circle style="fill:#004463;" cx="13" cy="4" r="1"></circle>
		</g>
		<path style="fill:#70B6E4;" d="M36,28c0-0.718-0.486-1.341-1.183-1.515c-1.161-0.291-2.084-1.123-2.486-2.231    c-0.112-0.309-0.237-0.61-0.375-0.905c-0.502-1.071-0.438-2.315,0.169-3.327c0.378-0.629,0.281-1.414-0.227-1.921    c-0.508-0.508-1.292-0.604-1.907-0.235c-1.025,0.616-2.271,0.68-3.341,0.178c-0.295-0.139-0.598-0.264-0.906-0.375    c-1.108-0.401-1.94-1.325-2.227-2.47C23.341,14.486,22.718,14,22,14s-1.341,0.486-1.515,1.183    c-0.291,1.161-1.123,2.084-2.231,2.486c-0.308,0.112-0.61,0.237-0.905,0.375c-1.071,0.502-2.315,0.438-3.327-0.169    c-0.629-0.378-1.414-0.281-1.921,0.227c-0.508,0.508-0.604,1.292-0.235,1.907c0.616,1.026,0.68,2.27,0.178,3.341    c-0.138,0.295-0.264,0.597-0.375,0.905c-0.402,1.108-1.325,1.941-2.47,2.228C8.486,26.659,8,27.282,8,28s0.486,1.341,1.183,1.515    c1.161,0.291,2.084,1.123,2.486,2.231c0.112,0.309,0.237,0.61,0.375,0.905c0.502,1.072,0.438,2.315-0.169,3.327    c-0.378,0.629-0.281,1.414,0.227,1.921c0.507,0.508,1.291,0.605,1.907,0.235c0.568-0.341,1.204-0.513,1.84-0.513    c0.512,0,1.023,0.111,1.501,0.335c0.295,0.139,0.598,0.264,0.906,0.375c1.108,0.401,1.94,1.325,2.227,2.47    C20.659,41.514,21.282,42,22,42s1.341-0.486,1.515-1.183c0.291-1.161,1.123-2.084,2.231-2.486c0.308-0.112,0.61-0.237,0.905-0.375    c1.072-0.502,2.316-0.438,3.327,0.169c0.629,0.377,1.414,0.282,1.921-0.227c0.508-0.508,0.605-1.292,0.235-1.907    c-0.616-1.026-0.68-2.27-0.178-3.341c0.138-0.295,0.264-0.597,0.375-0.905c0.402-1.108,1.325-1.941,2.47-2.228    C35.514,29.341,36,28.718,36,28z M22,36c-4.411,0-8-3.589-8-8s3.589-8,8-8s8,3.589,8,8S26.411,36,22,36z"></path>
		<path style="fill:#004463;" d="M22,44c-1.638,0-3.059-1.109-3.455-2.698c-0.128-0.514-0.491-0.916-0.973-1.09    c-0.365-0.132-0.723-0.281-1.072-0.444c-0.467-0.219-1.009-0.19-1.448,0.074c-1.42,0.85-3.208,0.631-4.366-0.527    c-1.158-1.157-1.378-2.946-0.535-4.351c0.273-0.455,0.3-0.997,0.082-1.464c-0.164-0.348-0.312-0.706-0.444-1.071    c-0.174-0.482-0.576-0.844-1.075-0.969C7.109,31.059,6,29.638,6,28s1.109-3.059,2.698-3.455c0.514-0.128,0.916-0.491,1.09-0.973    c0.132-0.365,0.28-0.723,0.444-1.072c0.218-0.467,0.191-1.008-0.074-1.448c-0.851-1.419-0.631-3.208,0.527-4.366    s2.948-1.377,4.351-0.535c0.456,0.273,0.997,0.299,1.464,0.082c0.348-0.163,0.706-0.312,1.071-0.444    c0.482-0.175,0.845-0.577,0.969-1.075C18.941,13.109,20.362,12,22,12s3.059,1.109,3.455,2.698c0.128,0.514,0.491,0.916,0.973,1.09    c0.365,0.132,0.723,0.281,1.072,0.444c0.467,0.218,1.008,0.19,1.448-0.074c1.419-0.851,3.208-0.63,4.366,0.527    c1.158,1.157,1.378,2.946,0.536,4.351c-0.273,0.455-0.3,0.997-0.082,1.464c0.164,0.348,0.312,0.706,0.444,1.071    c0.174,0.482,0.576,0.844,1.075,0.969C36.891,24.941,38,26.362,38,28s-1.109,3.059-2.698,3.455    c-0.514,0.128-0.916,0.491-1.09,0.973c-0.132,0.365-0.28,0.723-0.444,1.072c-0.218,0.467-0.191,1.008,0.074,1.448    c0.851,1.419,0.631,3.208-0.527,4.366c-1.158,1.157-2.946,1.378-4.351,0.535c-0.456-0.273-0.996-0.299-1.464-0.082    c-0.348,0.163-0.706,0.312-1.071,0.444c-0.482,0.175-0.845,0.577-0.969,1.075C25.059,42.891,23.638,44,22,44z M15.848,37.621    c0.512,0,1.023,0.111,1.501,0.335c0.295,0.139,0.598,0.264,0.906,0.375c1.108,0.401,1.94,1.325,2.227,2.47    C20.659,41.514,21.282,42,22,42s1.341-0.486,1.515-1.183c0.291-1.161,1.123-2.084,2.231-2.486c0.308-0.112,0.61-0.237,0.905-0.375    c1.072-0.502,2.316-0.438,3.327,0.169c0.629,0.377,1.414,0.282,1.921-0.227c0.508-0.508,0.605-1.292,0.235-1.907    c-0.616-1.026-0.68-2.27-0.178-3.341c0.138-0.295,0.264-0.597,0.375-0.905c0.402-1.108,1.325-1.941,2.47-2.228    C35.514,29.341,36,28.718,36,28s-0.486-1.341-1.183-1.515c-1.161-0.291-2.084-1.123-2.486-2.231    c-0.112-0.309-0.237-0.61-0.375-0.905c-0.502-1.071-0.438-2.315,0.169-3.327c0.378-0.629,0.281-1.414-0.227-1.921    c-0.508-0.508-1.292-0.604-1.907-0.235c-1.025,0.616-2.271,0.68-3.341,0.178c-0.295-0.139-0.598-0.264-0.906-0.375    c-1.108-0.401-1.94-1.325-2.227-2.47C23.341,14.486,22.718,14,22,14s-1.341,0.486-1.515,1.183    c-0.291,1.161-1.123,2.084-2.231,2.486c-0.308,0.112-0.61,0.237-0.905,0.375c-1.071,0.502-2.315,0.438-3.327-0.169    c-0.629-0.378-1.414-0.281-1.921,0.227c-0.508,0.508-0.604,1.292-0.235,1.907c0.616,1.026,0.68,2.27,0.178,3.341    c-0.138,0.295-0.264,0.597-0.375,0.905c-0.402,1.108-1.325,1.941-2.47,2.228C8.486,26.659,8,27.282,8,28s0.486,1.341,1.183,1.515    c1.161,0.291,2.084,1.123,2.486,2.231c0.112,0.309,0.237,0.61,0.375,0.905c0.502,1.072,0.438,2.315-0.169,3.327    c-0.378,0.629-0.281,1.414,0.227,1.921c0.507,0.508,1.291,0.605,1.907,0.235C14.576,37.793,15.212,37.621,15.848,37.621z M22,36    c-4.411,0-8-3.589-8-8s3.589-8,8-8s8,3.589,8,8S26.411,36,22,36z M22,22c-3.309,0-6,2.691-6,6s2.691,6,6,6s6-2.691,6-6    S25.309,22,22,22z"></path>
		<g>
			<circle style="fill:#004463;" cx="22" cy="28" r="2"></circle>
		</g>
		<g>
			<path style="fill:#C3D6E4;" d="M17,29c0-3.314,2.686-6,6-6c1.397,0,2.68,0.482,3.7,1.283C25.602,22.894,23.908,22,22,22     c-3.314,0-6,2.686-6,6c0,1.908,0.894,3.602,2.283,4.7C17.482,31.68,17,30.397,17,29z"></path>
		</g>
	</g>
</g>
<g id="pc_x5F_report">
</g>
<g id="chat">
</g>
<g id="marketing">
</g>
<g id="analytics">
</g>
<g id="search_1_">
</g>
<g id="funnel">
</g>
<g id="tag">
</g>
<g id="eye_x5F_tracking">
</g>
<g id="report">
</g>
<g id="localisation">
</g>
<g id="mobile">
</g>
<g id="intenet">
</g>
<g id="pie_x5F_chart">
</g>
<g id="page_x5F_search">
</g>
<g id="code">
</g>
<g id="code_x5F_check">
</g>
<g id="link">
</g>
<g id="monetisation">
</g>
<g id="connection">
</g>
<g id="server">
</g>
<g id="white_x5F_hat">
</g>
<g id="ppk">
</g>
<g id="page_x5F_test">
</g>
<g id="money">
</g>
<g id="page_x5F_quality">
</g>
<g id="page_x5F_speed">
</g>
<g id="money_x5F_bag">
</g>
<g id="trolley">
</g>
<g id="adaptive">
</g>
<g id="console">
</g>
<g id="briefcase">
</g>
<g id="cloud">
</g>
<g id="chess">
</g>
<g id="stopwatch">
</g>
<g id="test">
</g>
<g id="user">
</g>
<g id="social">
</g>
<g id="like">
</g>
<g id="crown">
</g>
<g id="target">
</g>
<g id="images">
</g>
<g id="calendar">
</g>
<g id="newspaper">
</g>
<g id="pencil">
</g>
<g id="email">
</g>
<g id="rocket">
</g>
<g id="trophy">
</g>
<g id="shop">
</g>
<g id="support">
</g>
</svg>