<svg xmlns="http://www.w3.org/2000/svg" xmlns:xlink="http://www.w3.org/1999/xlink" x="0px" y="0px" viewBox="0 0 44 44" style="enable-background:new 0 0 44 44;" xml:space="preserve">
<g id="page_x5F_settings">
</g>
<g id="pc_x5F_report">
</g>
<g id="chat">
</g>
<g id="marketing">
</g>
<g id="analytics">
</g>
<g id="search_1_">
</g>
<g id="funnel">
</g>
<g id="tag">
</g>
<g id="eye_x5F_tracking">
</g>
<g id="report">
</g>
<g id="localisation">
</g>
<g id="mobile">
</g>
<g id="intenet">
</g>
<g id="pie_x5F_chart">
</g>
<g id="page_x5F_search">
</g>
<g id="code">
</g>
<g id="code_x5F_check">
</g>
<g id="link">
</g>
<g id="monetisation">
	<g>
		<path style="fill:#EBEEF7;" d="M42,9H2v27c0,0.551,0.449,1,1,1h38c0.551,0,1-0.449,1-1V9z"></path>
		<path style="fill:#AFC3D7;" d="M42,4c0-0.551-0.449-1-1-1H3C2.449,3,2,3.449,2,4v3h40V4z"></path>
		<path style="fill:#004463;" d="M41,1H3C1.346,1,0,2.346,0,4v32c0,1.654,1.346,3,3,3h38c1.654,0,3-1.346,3-3V4    C44,2.346,42.654,1,41,1z M2,4c0-0.551,0.449-1,1-1h38c0.551,0,1,0.449,1,1v3H2V4z M42,36c0,0.551-0.449,1-1,1H3    c-0.551,0-1-0.449-1-1V9h40V36z"></path>
		<g>
			<circle style="fill:#004463;" cx="5" cy="5" r="1"></circle>
		</g>
		<g>
			<circle style="fill:#004463;" cx="9" cy="5" r="1"></circle>
		</g>
		<g>
			<circle style="fill:#004463;" cx="13" cy="5" r="1"></circle>
		</g>
		<g>
			<rect x="5" y="12" style="fill:#C3D6E4;" width="34" height="10"></rect>
		</g>
		<g>
			<rect x="5" y="24" style="fill:#C3D6E4;" width="15" height="10"></rect>
		</g>
		<g>
			<rect x="22" y="24" style="fill:#C3D6E4;" width="17" height="10"></rect>
		</g>
		<g>
			<circle style="fill:#FFC95C;" cx="26" cy="25" r="5"></circle>
			<path style="fill:#004463;" d="M26,32c-3.86,0-7-3.14-7-7s3.14-7,7-7s7,3.14,7,7S29.86,32,26,32z M26,20c-2.757,0-5,2.243-5,5     s2.243,5,5,5s5-2.243,5-5S28.757,20,26,20z"></path>
		</g>
		<g>
			<path style="fill:#F4B344;" d="M28.828,22.172l-5.657,5.657c1.562,1.562,4.095,1.562,5.657,0     C30.391,26.266,30.391,23.734,28.828,22.172z"></path>
		</g>
		<g>
			<circle style="fill:#FFC95C;" cx="34" cy="29" r="5"></circle>
			<path style="fill:#004463;" d="M34,36c-3.86,0-7-3.14-7-7s3.14-7,7-7s7,3.14,7,7S37.86,36,34,36z M34,24c-2.757,0-5,2.243-5,5     s2.243,5,5,5s5-2.243,5-5S36.757,24,34,24z"></path>
		</g>
		<g>
			<path style="fill:#F4B344;" d="M36.828,26.172l-5.657,5.657c1.562,1.562,4.095,1.562,5.657,0     C38.391,30.266,38.391,27.734,36.828,26.172z"></path>
		</g>
		<g>
			
				<ellipse transform="matrix(0.7071 -0.7071 0.7071 0.7071 -16.9606 31.0541)" style="fill:#FFC95C;" cx="29.005" cy="36" rx="5.002" ry="5.002"></ellipse>
			<path style="fill:#004463;" d="M29.005,43c-1.793,0-3.587-0.682-4.952-2.048c-2.731-2.73-2.731-7.174,0-9.904     c2.731-2.731,7.173-2.731,9.904,0c2.731,2.73,2.731,7.174,0,9.904C32.591,42.318,30.798,43,29.005,43z M29.005,31     c-1.281,0-2.562,0.488-3.537,1.463c-1.95,1.951-1.95,5.124,0,7.075c1.95,1.95,5.124,1.95,7.074,0c1.95-1.951,1.95-5.124,0-7.075     C31.567,31.488,30.286,31,29.005,31z"></path>
		</g>
		<g>
			<path style="fill:#F4B344;" d="M31.828,33l-5.657,5.657c1.562,1.562,4.095,1.562,5.657,0C33.391,37.095,33.391,34.562,31.828,33z     "></path>
		</g>
	</g>
</g>
<g id="connection">
</g>
<g id="server">
</g>
<g id="white_x5F_hat">
</g>
<g id="ppk">
</g>
<g id="page_x5F_test">
</g>
<g id="money">
</g>
<g id="page_x5F_quality">
</g>
<g id="page_x5F_speed">
</g>
<g id="money_x5F_bag">
</g>
<g id="trolley">
</g>
<g id="adaptive">
</g>
<g id="console">
</g>
<g id="briefcase">
</g>
<g id="cloud">
</g>
<g id="chess">
</g>
<g id="stopwatch">
</g>
<g id="test">
</g>
<g id="user">
</g>
<g id="social">
</g>
<g id="like">
</g>
<g id="crown">
</g>
<g id="target">
</g>
<g id="images">
</g>
<g id="calendar">
</g>
<g id="newspaper">
</g>
<g id="pencil">
</g>
<g id="email">
</g>
<g id="rocket">
</g>
<g id="trophy">
</g>
<g id="shop">
</g>
<g id="support">
</g>
</svg>