<svg xmlns="http://www.w3.org/2000/svg" xmlns:xlink="http://www.w3.org/1999/xlink" x="0px" y="0px" viewBox="0 0 44 44" style="enable-background:new 0 0 44 44;" xml:space="preserve">
<g id="page_x5F_settings">
</g>
<g id="pc_x5F_report">
</g>
<g id="chat">
</g>
<g id="marketing">
</g>
<g id="analytics">
</g>
<g id="search_1_">
</g>
<g id="funnel">
</g>
<g id="tag">
</g>
<g id="eye_x5F_tracking">
</g>
<g id="report">
</g>
<g id="localisation">
</g>
<g id="mobile">
</g>
<g id="intenet">
</g>
<g id="pie_x5F_chart">
</g>
<g id="page_x5F_search">
	<g>
		<path style="fill:#EBEEF7;" d="M42,9H2v27c0,0.551,0.449,1,1,1h38c0.551,0,1-0.449,1-1V9z"></path>
		<path style="fill:#AFC3D7;" d="M42,4c0-0.551-0.449-1-1-1H3C2.449,3,2,3.449,2,4v3h40V4z"></path>
		<path style="fill:#004463;" d="M41,1H3C1.346,1,0,2.346,0,4v32c0,1.654,1.346,3,3,3h38c1.654,0,3-1.346,3-3V4    C44,2.346,42.654,1,41,1z M2,4c0-0.551,0.449-1,1-1h38c0.551,0,1,0.449,1,1v3H2V4z M42,36c0,0.551-0.449,1-1,1H3    c-0.551,0-1-0.449-1-1V9h40V36z"></path>
		<g>
			<circle style="fill:#004463;" cx="5" cy="5" r="1"></circle>
		</g>
		<g>
			<circle style="fill:#004463;" cx="9" cy="5" r="1"></circle>
		</g>
		<g>
			<circle style="fill:#004463;" cx="13" cy="5" r="1"></circle>
		</g>
		<g>
			<path style="fill:#CCD9E4;" d="M26.492,15.008c1.852,2.246,2.83,5.239,2.413,8.46c-0.63,4.868-4.569,8.807-9.437,9.437     c-3.22,0.417-6.213-0.561-8.46-2.413c2.358,2.86,6.132,4.509,10.25,3.872c4.646-0.719,8.386-4.46,9.105-9.105     C31.001,21.14,29.352,17.366,26.492,15.008z"></path>
		</g>
		<path style="fill:#EF4C4E;" d="M30,31.414L27.414,34L34,40.586c0.526,0.526,1.474,0.526,2,0L36.586,40    C36.849,39.737,37,39.372,37,39s-0.151-0.737-0.414-1L30,31.414z"></path>
		<g>
			<path style="fill:#DB3440;" d="M36.586,38l-0.993-0.993c0.267,0.268,0.414,0.622,0.414,1s-0.147,0.732-0.414,1l-0.586,0.586     c-0.535,0.533-1.465,0.533-2,0L34,40.586c0.55,0.55,1.45,0.55,2,0L36.586,40C36.853,39.732,37,39.378,37,39     S36.853,38.268,36.586,38z"></path>
		</g>
		<g>
			<circle style="fill:#EBEEF7;" cx="18" cy="22" r="9"></circle>
			<path style="fill:#004463;" d="M38,36.586l-7.293-7.293c-0.391-0.391-1.023-0.391-1.414,0L28,30.586l-1.552-1.552     C28.039,27.125,29,24.673,29,22c0-6.065-4.935-11-11-11S7,15.935,7,22s4.935,11,11,11c2.673,0,5.125-0.961,7.034-2.552L26.586,32     l-1.293,1.293c-0.391,0.391-0.391,1.023,0,1.414L32.586,42c0.645,0.645,1.502,1,2.414,1s1.77-0.355,2.414-1L38,41.414     c0.645-0.645,1-1.502,1-2.414S38.645,37.23,38,36.586z M9,22c0-4.962,4.038-9,9-9s9,4.038,9,9s-4.038,9-9,9S9,26.962,9,22z      M36.586,40L36,40.586c-0.526,0.526-1.474,0.526-2,0L27.414,34L30,31.414L36.586,38C36.849,38.263,37,38.628,37,39     S36.849,39.737,36.586,40z"></path>
		</g>
		<g>
			<circle style="fill:#ACD6F2;" cx="18" cy="22" r="6"></circle>
			<path style="fill:#004463;" d="M18,30c-4.411,0-8-3.589-8-8s3.589-8,8-8s8,3.589,8,8S22.411,30,18,30z M18,16     c-3.309,0-6,2.691-6,6s2.691,6,6,6s6-2.691,6-6S21.309,16,18,16z"></path>
		</g>
		<g>
			<path style="fill:#D3EEFB;" d="M14,23c-0.552,0-1-0.448-1-1c0-2.757,2.243-5,5-5c0.552,0,1,0.448,1,1s-0.448,1-1,1     c-1.654,0-3,1.346-3,3C15,22.552,14.552,23,14,23z"></path>
		</g>
	</g>
</g>
<g id="code">
</g>
<g id="code_x5F_check">
</g>
<g id="link">
</g>
<g id="monetisation">
</g>
<g id="connection">
</g>
<g id="server">
</g>
<g id="white_x5F_hat">
</g>
<g id="ppk">
</g>
<g id="page_x5F_test">
</g>
<g id="money">
</g>
<g id="page_x5F_quality">
</g>
<g id="page_x5F_speed">
</g>
<g id="money_x5F_bag">
</g>
<g id="trolley">
</g>
<g id="adaptive">
</g>
<g id="console">
</g>
<g id="briefcase">
</g>
<g id="cloud">
</g>
<g id="chess">
</g>
<g id="stopwatch">
</g>
<g id="test">
</g>
<g id="user">
</g>
<g id="social">
</g>
<g id="like">
</g>
<g id="crown">
</g>
<g id="target">
</g>
<g id="images">
</g>
<g id="calendar">
</g>
<g id="newspaper">
</g>
<g id="pencil">
</g>
<g id="email">
</g>
<g id="rocket">
</g>
<g id="trophy">
</g>
<g id="shop">
</g>
<g id="support">
</g>
</svg>