<svg xmlns="http://www.w3.org/2000/svg" xmlns:xlink="http://www.w3.org/1999/xlink" x="0px" y="0px" viewBox="0 0 44 44" style="enable-background:new 0 0 44 44;" xml:space="preserve">
<g id="page_x5F_settings">
</g>
<g id="pc_x5F_report">
</g>
<g id="chat">
</g>
<g id="marketing">
</g>
<g id="analytics">
</g>
<g id="search_1_">
</g>
<g id="funnel">
</g>
<g id="tag">
</g>
<g id="eye_x5F_tracking">
</g>
<g id="report">
</g>
<g id="localisation">
</g>
<g id="mobile">
</g>
<g id="intenet">
</g>
<g id="pie_x5F_chart">
</g>
<g id="page_x5F_search">
</g>
<g id="code">
</g>
<g id="code_x5F_check">
</g>
<g id="link">
</g>
<g id="monetisation">
</g>
<g id="connection">
</g>
<g id="server">
</g>
<g id="white_x5F_hat">
</g>
<g id="ppk">
</g>
<g id="page_x5F_test">
</g>
<g id="money">
</g>
<g id="page_x5F_quality">
	<g>
		<path style="fill:#EBEEF7;" d="M41,9H1v27c0,0.551,0.449,1,1,1h38c0.551,0,1-0.449,1-1V9z"></path>
		<g>
			<path style="fill:#C3D6E4;" d="M26.515,17.817c0.085,0.326,0.342,0.583,0.668,0.668l0.46,0.12     c-0.255-0.574-0.695-1.034-1.266-1.314L26.515,17.817z"></path>
			<path style="fill:#C3D6E4;" d="M30.344,25.352c-0.127-0.216-0.127-0.484,0-0.7l0.285-0.487c0.429-0.734,0.488-1.605,0.163-2.391     c-0.199-0.482-0.535-0.87-0.946-1.159c0.248,0.789,0.173,1.632-0.25,2.356l-0.325,0.556c-0.171,0.292-0.171,0.654,0,0.945     l0.325,0.557c0.468,0.8,0.533,1.75,0.178,2.606c-0.355,0.856-1.072,1.482-1.969,1.716l-0.624,0.163     c-0.326,0.085-0.583,0.342-0.668,0.668l-0.163,0.623c-0.075,0.286-0.202,0.545-0.352,0.789v1.27V37h2v-6.652     c0.085-0.19,0.235-0.346,0.441-0.4l0.545-0.143c0.823-0.215,1.481-0.79,1.807-1.575s0.266-1.657-0.163-2.391L30.344,25.352z"></path>
		</g>
		<path style="fill:#AFC3D7;" d="M41,4c0-0.551-0.449-1-1-1H2C1.449,3,1,3.449,1,4v3h40V4z"></path>
		<path style="fill:#004463;" d="M40,1H2C0.346,1-1,2.346-1,4v32c0,1.654,1.346,3,3,3h38c1.654,0,3-1.346,3-3V4    C43,2.346,41.654,1,40,1z M1,4c0-0.551,0.449-1,1-1h38c0.551,0,1,0.449,1,1v3H1V4z M41,36c0,0.551-0.449,1-1,1H2    c-0.551,0-1-0.449-1-1V9h40V36z"></path>
		<g>
			<circle style="fill:#004463;" cx="4" cy="5" r="1"></circle>
		</g>
		<g>
			<circle style="fill:#004463;" cx="8" cy="5" r="1"></circle>
		</g>
		<g>
			<circle style="fill:#004463;" cx="12" cy="5" r="1"></circle>
		</g>
		<g>
			<rect x="4" y="12" style="fill:#FFFFFF;" width="34" height="11"></rect>
		</g>
		<g>
			<rect x="4" y="25" style="fill:#FFFFFF;" width="34" height="9"></rect>
		</g>
		<path style="fill:#EF4C4E;" d="M18.586,39c0.645-0.645,1.502-1,2.414-1s1.77,0.355,2.414,1L24,39.586V30h-6v9.586L18.586,39z"></path>
		<g>
			<path style="fill:#DB3440;" d="M18,30v3.861c0.724,0.229,1.499,0.159,2.163-0.229l0.486-0.284     c0.108-0.063,0.229-0.095,0.351-0.095V38c0.911,0,1.769,0.355,2.414,1L24,39.586v-5.721V31v-1H18z"></path>
		</g>
		<path style="fill:#FFC95C;" d="M27.871,21.961c0.149-0.255,0.17-0.558,0.057-0.831c-0.113-0.273-0.342-0.473-0.628-0.547    l-0.623-0.163c-1.025-0.268-1.829-1.072-2.097-2.096L24.417,17.7c-0.075-0.286-0.274-0.514-0.547-0.627    c-0.273-0.112-0.576-0.093-0.831,0.057l-0.556,0.325c-0.915,0.535-2.051,0.535-2.966,0l-0.556-0.325    C18.815,17.043,18.653,17,18.49,17c-0.121,0-0.243,0.024-0.359,0.072c-0.273,0.113-0.473,0.342-0.547,0.628l-0.163,0.623    c-0.268,1.025-1.072,1.829-2.096,2.097L14.7,20.583c-0.286,0.075-0.514,0.274-0.627,0.547c-0.113,0.273-0.092,0.576,0.057,0.831    l0.325,0.556c0.535,0.914,0.535,2.051,0,2.965l-0.325,0.556c-0.149,0.255-0.17,0.558-0.057,0.831    c0.113,0.273,0.342,0.473,0.628,0.547l0.623,0.163c1.025,0.268,1.829,1.072,2.097,2.096l0.163,0.624    c0.075,0.286,0.274,0.514,0.547,0.627c0.272,0.112,0.575,0.092,0.831-0.057l0.556-0.325c0.914-0.535,2.05-0.535,2.965,0    l0.556,0.325c0.255,0.15,0.559,0.169,0.831,0.057c0.273-0.113,0.473-0.342,0.547-0.628l0.163-0.623    c0.268-1.025,1.072-1.829,2.096-2.097l0.624-0.163c0.286-0.075,0.514-0.274,0.627-0.547c0.113-0.273,0.092-0.576-0.057-0.831    l-0.325-0.556c-0.535-0.914-0.535-2.051,0-2.965L27.871,21.961z"></path>
		<path style="fill:#004463;" d="M29.272,24.472c-0.171-0.291-0.171-0.653,0-0.945l0.325-0.556c0.468-0.8,0.533-1.75,0.178-2.606    c-0.355-0.856-1.072-1.482-1.969-1.716l-0.623-0.163c-0.327-0.085-0.583-0.342-0.668-0.668l-0.163-0.624    c-0.234-0.896-0.86-1.614-1.716-1.969c-0.856-0.354-1.806-0.29-2.606,0.178l-0.556,0.325c0,0,0,0,0,0    c-0.291,0.171-0.653,0.171-0.945,0l-0.556-0.325c-0.8-0.467-1.749-0.532-2.606-0.178c-0.856,0.355-1.482,1.072-1.716,1.969    l-0.163,0.623c-0.085,0.327-0.342,0.583-0.668,0.668l-0.624,0.163c-0.896,0.234-1.614,0.86-1.969,1.716    c-0.354,0.856-0.29,1.806,0.178,2.606l0.325,0.557c0.171,0.291,0.171,0.653,0,0.945l-0.325,0.556    c-0.468,0.8-0.533,1.75-0.178,2.606c0.355,0.856,1.072,1.482,1.969,1.716l0.623,0.163c0.327,0.085,0.583,0.342,0.668,0.668    l0.163,0.624c0.075,0.286,0.202,0.545,0.352,0.789V42c0,0.404,0.244,0.769,0.617,0.924c0.374,0.154,0.803,0.069,1.09-0.217    L20,40.414c0.526-0.526,1.474-0.526,2,0l2.293,2.293C24.484,42.898,24.74,43,25,43c0.129,0,0.259-0.025,0.383-0.076    C25.756,42.769,26,42.404,26,42V31.595c0.149-0.244,0.277-0.503,0.352-0.789l0.163-0.623c0.085-0.327,0.342-0.583,0.668-0.668    l0.624-0.163c0.896-0.234,1.614-0.86,1.969-1.716c0.354-0.856,0.29-1.806-0.178-2.606L29.272,24.472z M23.414,39    c-0.645-0.645-1.502-1-2.414-1s-1.77,0.355-2.414,1L18,39.586v-6.633c0.164,0.028,0.328,0.049,0.492,0.049    c0.512,0,1.02-0.136,1.479-0.404l0.557-0.325c0.291-0.171,0.653-0.171,0.945,0l0.556,0.325c0.607,0.355,1.299,0.475,1.971,0.36    v6.629L23.414,39z M27.545,25.482l0.325,0.556c0.149,0.255,0.17,0.558,0.057,0.831c-0.113,0.273-0.342,0.473-0.627,0.547    l-0.624,0.163c-1.024,0.268-1.828,1.072-2.096,2.097L24.417,30.3c-0.075,0.286-0.274,0.515-0.547,0.628    c-0.272,0.112-0.576,0.093-0.831-0.057l-0.556-0.325c-0.915-0.535-2.051-0.535-2.965,0l-0.556,0.325    c-0.256,0.149-0.559,0.169-0.831,0.057c-0.273-0.113-0.473-0.342-0.547-0.627l-0.163-0.624c-0.268-1.024-1.072-1.828-2.097-2.096    L14.7,27.417c-0.286-0.075-0.515-0.274-0.628-0.547c-0.113-0.273-0.092-0.576,0.057-0.831l0.325-0.556    c0.535-0.915,0.535-2.051,0-2.965l-0.325-0.556c-0.149-0.255-0.17-0.558-0.057-0.831c0.113-0.273,0.342-0.473,0.627-0.547    l0.624-0.163c1.024-0.268,1.828-1.072,2.096-2.097l0.163-0.623c0.075-0.286,0.274-0.515,0.547-0.628    C18.247,17.024,18.369,17,18.49,17c0.163,0,0.325,0.043,0.472,0.129l0.556,0.325c0.915,0.535,2.051,0.535,2.966,0l0.556-0.325    c0.255-0.15,0.558-0.169,0.831-0.057c0.273,0.113,0.473,0.342,0.547,0.627l0.163,0.624c0.268,1.024,1.072,1.828,2.097,2.096    l0.623,0.163c0.286,0.075,0.515,0.274,0.628,0.547c0.113,0.273,0.092,0.576-0.057,0.831l-0.325,0.556    C27.01,23.432,27.01,24.568,27.545,25.482z"></path>
		<g>
			<circle style="fill:#F4B344;" cx="21" cy="24" r="4"></circle>
		</g>
		<g>
			<circle style="fill:#FFC95C;" cx="21" cy="24" r="2"></circle>
		</g>
		<path style="fill:#D3E2EC;" d="M30.63,25.839l-0.285-0.487c-0.064-0.109-0.095-0.23-0.095-0.352H29.58l0.017,0.029    c0.468,0.8,0.533,1.75,0.178,2.606c-0.355,0.856-1.072,1.482-1.969,1.716l-0.624,0.163c-0.326,0.085-0.583,0.342-0.668,0.668    l-0.163,0.623c-0.075,0.286-0.202,0.545-0.352,0.789v1.27V34h2v-3.652c0.085-0.19,0.235-0.346,0.441-0.4l0.545-0.143    c0.823-0.215,1.481-0.79,1.807-1.575S31.058,26.573,30.63,25.839z"></path>
		<g>
			<path style="fill:#D3E2EC;" d="M29.597,22.971L29.58,23h1.411c0.03-0.411-0.035-0.829-0.199-1.226     c-0.199-0.482-0.535-0.87-0.946-1.159C30.095,21.404,30.02,22.247,29.597,22.971z"></path>
			<path style="fill:#D3E2EC;" d="M26.515,17.817c0.085,0.326,0.342,0.583,0.668,0.668l0.46,0.12     c-0.255-0.574-0.695-1.034-1.266-1.314L26.515,17.817z"></path>
		</g>
	</g>
</g>
<g id="page_x5F_speed">
</g>
<g id="money_x5F_bag">
</g>
<g id="trolley">
</g>
<g id="adaptive">
</g>
<g id="console">
</g>
<g id="briefcase">
</g>
<g id="cloud">
</g>
<g id="chess">
</g>
<g id="stopwatch">
</g>
<g id="test">
</g>
<g id="user">
</g>
<g id="social">
</g>
<g id="like">
</g>
<g id="crown">
</g>
<g id="target">
</g>
<g id="images">
</g>
<g id="calendar">
</g>
<g id="newspaper">
</g>
<g id="pencil">
</g>
<g id="email">
</g>
<g id="rocket">
</g>
<g id="trophy">
</g>
<g id="shop">
</g>
<g id="support">
</g>
</svg>