<svg xmlns="http://www.w3.org/2000/svg" xmlns:xlink="http://www.w3.org/1999/xlink" x="0px" y="0px" viewBox="0 0 44 44" style="enable-background:new 0 0 44 44;" xml:space="preserve">
<g id="page_x5F_settings">
</g>
<g id="pc_x5F_report">
</g>
<g id="chat">
</g>
<g id="marketing">
</g>
<g id="analytics">
</g>
<g id="search_1_">
</g>
<g id="funnel">
</g>
<g id="tag">
</g>
<g id="eye_x5F_tracking">
</g>
<g id="report">
</g>
<g id="localisation">
</g>
<g id="mobile">
</g>
<g id="intenet">
</g>
<g id="pie_x5F_chart">
</g>
<g id="page_x5F_search">
</g>
<g id="code">
</g>
<g id="code_x5F_check">
</g>
<g id="link">
</g>
<g id="monetisation">
</g>
<g id="connection">
</g>
<g id="server">
	<g>
		<path style="fill:#D3E2EC;" d="M6,20h32c0.551,0,1-0.449,1-1v-6c0-0.551-0.449-1-1-1H6c-0.551,0-1,0.449-1,1v6    C5,19.551,5.449,20,6,20z"></path>
		<path style="fill:#D3E2EC;" d="M6,30h32c0.551,0,1-0.449,1-1v-6c0-0.551-0.449-1-1-1H6c-0.551,0-1,0.449-1,1v6    C5,29.551,5.449,30,6,30z"></path>
		<g>
			<path style="fill:#AFC3D7;" d="M38,22v6c0,0.551-0.448,1-1,1H5c0,0.551,0.448,1,1,1h32c0.552,0,1-0.449,1-1v-6     C39,22.449,38.552,22,38,22z"></path>
		</g>
		<g>
			<path style="fill:#AFC3D7;" d="M38,12v6c0,0.551-0.448,1-1,1H5c0,0.551,0.448,1,1,1h32c0.552,0,1-0.449,1-1v-6     C39,12.449,38.552,12,38,12z"></path>
		</g>
		<g>
			<path style="fill:#004463;" d="M36,27H26c-0.552,0-1-0.448-1-1s0.448-1,1-1h10c0.552,0,1,0.448,1,1S36.552,27,36,27z"></path>
		</g>
		<g>
			<path style="fill:#004463;" d="M36,17H26c-0.552,0-1-0.448-1-1s0.448-1,1-1h10c0.552,0,1,0.448,1,1S36.552,17,36,17z"></path>
		</g>
		<g>
			<circle style="fill:#004362;" cx="8" cy="26" r="1"></circle>
		</g>
		<g>
			<circle style="fill:#004362;" cx="12" cy="16" r="1"></circle>
		</g>
		<g>
			<circle style="fill:#004362;" cx="12" cy="26" r="1"></circle>
		</g>
		<g>
			<circle style="fill:#004362;" cx="16" cy="16" r="1"></circle>
		</g>
		<g>
			<circle style="fill:#004362;" cx="16" cy="26" r="1"></circle>
		</g>
		<g>
			<circle style="fill:#004362;" cx="22" cy="16" r="1"></circle>
		</g>
		<g>
			<circle style="fill:#004362;" cx="22" cy="26" r="1"></circle>
		</g>
		<path style="fill:#D3E2EC;" d="M6,10h32c0.551,0,1-0.449,1-1V3c0-0.551-0.449-1-1-1H6C5.449,2,5,2.449,5,3v6    C5,9.551,5.449,10,6,10z"></path>
		<g>
			<path style="fill:#AFC3D7;" d="M38,2v6c0,0.551-0.448,1-1,1H5c0,0.551,0.448,1,1,1h32c0.552,0,1-0.449,1-1V3     C39,2.449,38.552,2,38,2z"></path>
		</g>
		<g>
			<path style="fill:#004463;" d="M36,7H26c-0.552,0-1-0.448-1-1s0.448-1,1-1h10c0.552,0,1,0.448,1,1S36.552,7,36,7z"></path>
		</g>
		<g>
			<circle style="fill:#004362;" cx="8" cy="6" r="1"></circle>
		</g>
		<g>
			<circle style="fill:#004362;" cx="12" cy="6" r="1"></circle>
		</g>
		<g>
			<circle style="fill:#004362;" cx="16" cy="6" r="1"></circle>
		</g>
		<g>
			<circle style="fill:#004362;" cx="22" cy="6" r="1"></circle>
		</g>
		<g>
			<circle style="fill:#004362;" cx="8" cy="16" r="1"></circle>
		</g>
		<g>
			<circle style="fill:#70B6E4;" cx="22" cy="40" r="2"></circle>
			<path style="fill:#004463;" d="M41,3c0-1.654-1.346-3-3-3H6C4.346,0,3,1.346,3,3v6c0,0.771,0.301,1.468,0.78,2     C3.301,11.532,3,12.229,3,13v6c0,0.771,0.301,1.468,0.78,2C3.301,21.532,3,22.229,3,23v6c0,1.654,1.346,3,3,3h15v4.142     c-1.399,0.364-2.494,1.459-2.858,2.858H13c-0.552,0-1,0.448-1,1s0.448,1,1,1h5.142c0.447,1.72,2,3,3.858,3s3.411-1.28,3.858-3H31     c0.552,0,1-0.448,1-1s-0.448-1-1-1h-5.142c-0.364-1.399-1.459-2.494-2.858-2.858V32h15c1.654,0,3-1.346,3-3v-6     c0-0.771-0.301-1.468-0.78-2c0.48-0.532,0.78-1.229,0.78-2v-6c0-0.771-0.301-1.468-0.78-2C40.699,10.468,41,9.771,41,9V3z M24,40     c0,1.103-0.897,2-2,2s-2-0.897-2-2s0.897-2,2-2S24,38.897,24,40z M5,3c0-0.551,0.449-1,1-1h32c0.551,0,1,0.449,1,1v6     c0,0.551-0.449,1-1,1H6c-0.551,0-1-0.449-1-1V3z M39,13v6c0,0.551-0.449,1-1,1H6c-0.551,0-1-0.449-1-1v-6c0-0.551,0.449-1,1-1h32     C38.551,12,39,12.449,39,13z M39,29c0,0.551-0.449,1-1,1H6c-0.551,0-1-0.449-1-1v-6c0-0.551,0.449-1,1-1h32c0.551,0,1,0.449,1,1     V29z"></path>
		</g>
	</g>
</g>
<g id="white_x5F_hat">
</g>
<g id="ppk">
</g>
<g id="page_x5F_test">
</g>
<g id="money">
</g>
<g id="page_x5F_quality">
</g>
<g id="page_x5F_speed">
</g>
<g id="money_x5F_bag">
</g>
<g id="trolley">
</g>
<g id="adaptive">
</g>
<g id="console">
</g>
<g id="briefcase">
</g>
<g id="cloud">
</g>
<g id="chess">
</g>
<g id="stopwatch">
</g>
<g id="test">
</g>
<g id="user">
</g>
<g id="social">
</g>
<g id="like">
</g>
<g id="crown">
</g>
<g id="target">
</g>
<g id="images">
</g>
<g id="calendar">
</g>
<g id="newspaper">
</g>
<g id="pencil">
</g>
<g id="email">
</g>
<g id="rocket">
</g>
<g id="trophy">
</g>
<g id="shop">
</g>
<g id="support">
</g>
</svg>