<svg xmlns="http://www.w3.org/2000/svg" xmlns:xlink="http://www.w3.org/1999/xlink" x="0px" y="0px" viewBox="0 0 44 44" style="enable-background:new 0 0 44 44;" xml:space="preserve">
<g id="page_x5F_settings">
</g>
<g id="pc_x5F_report">
</g>
<g id="chat">
</g>
<g id="marketing">
</g>
<g id="analytics">
</g>
<g id="search_1_">
</g>
<g id="funnel">
</g>
<g id="tag">
</g>
<g id="eye_x5F_tracking">
</g>
<g id="report">
</g>
<g id="localisation">
</g>
<g id="mobile">
</g>
<g id="intenet">
</g>
<g id="pie_x5F_chart">
</g>
<g id="page_x5F_search">
</g>
<g id="code">
</g>
<g id="code_x5F_check">
</g>
<g id="link">
</g>
<g id="monetisation">
</g>
<g id="connection">
	<g>
		<circle style="fill:#EBEEF7;" cx="20" cy="24" r="5"></circle>
		<circle style="fill:#8EC861;" cx="5" cy="39" r="4"></circle>
		<circle style="fill:#EF4C4E;" cx="39" cy="24" r="3"></circle>
		<circle style="fill:#ACD6F2;" cx="20" cy="4" r="2"></circle>
		<circle style="fill:#FFC95C;" cx="6" cy="24" r="2"></circle>
		<circle style="fill:#70B6E4;" cx="31" cy="35" r="2"></circle>
		<path style="fill:#004463;" d="M39,19c-2.414,0-4.434,1.721-4.899,4H26.92c-0.441-3.059-2.861-5.48-5.92-5.92V7.858    c1.72-0.447,3-2,3-3.858c0-2.206-1.794-4-4-4s-4,1.794-4,4c0,1.858,1.28,3.411,3,3.858v9.222c-3.059,0.441-5.48,2.861-5.92,5.92    H9.858c-0.447-1.72-2-3-3.858-3c-2.206,0-4,1.794-4,4s1.794,4,4,4c1.858,0,3.411-1.28,3.858-3h3.222    c0.17,1.182,0.641,2.266,1.325,3.181l-6.652,6.652C6.962,34.309,6.017,34,5,34c-2.757,0-5,2.243-5,5s2.243,5,5,5s5-2.243,5-5    c0-1.017-0.309-1.962-0.833-2.753l6.647-6.647C16.982,30.477,18.429,31,20,31s3.018-0.523,4.186-1.4l3.381,3.381    C27.215,33.576,27,34.26,27,35c0,2.206,1.794,4,4,4s4-1.794,4-4s-1.794-4-4-4c-0.74,0-1.424,0.215-2.019,0.567l-3.386-3.386    c0.684-0.915,1.155-1.999,1.325-3.181h7.181c0.465,2.279,2.484,4,4.899,4c2.757,0,5-2.243,5-5S41.757,19,39,19z M6,26    c-1.103,0-2-0.897-2-2s0.897-2,2-2s2,0.897,2,2S7.103,26,6,26z M31,33c1.103,0,2,0.897,2,2s-0.897,2-2,2s-2-0.897-2-2    S29.897,33,31,33z M18,4c0-1.103,0.897-2,2-2s2,0.897,2,2s-0.897,2-2,2S18,5.103,18,4z M5,42c-1.654,0-3-1.346-3-3s1.346-3,3-3    s3,1.346,3,3S6.654,42,5,42z M20,29c-2.757,0-5-2.243-5-5s2.243-5,5-5s5,2.243,5,5S22.757,29,20,29z M39,27c-1.654,0-3-1.346-3-3    s1.346-3,3-3s3,1.346,3,3S40.654,27,39,27z"></path>
		<g>
			<path style="fill:#CCD9E4;" d="M22.375,19.625C22.761,20.335,23,21.136,23,22c0,2.761-2.239,5-5,5     c-0.864,0-1.665-0.239-2.375-0.625C16.473,27.931,18.103,29,20,29c2.761,0,5-2.239,5-5C25,22.103,23.931,20.473,22.375,19.625z"></path>
		</g>
	</g>
</g>
<g id="server">
</g>
<g id="white_x5F_hat">
</g>
<g id="ppk">
</g>
<g id="page_x5F_test">
</g>
<g id="money">
</g>
<g id="page_x5F_quality">
</g>
<g id="page_x5F_speed">
</g>
<g id="money_x5F_bag">
</g>
<g id="trolley">
</g>
<g id="adaptive">
</g>
<g id="console">
</g>
<g id="briefcase">
</g>
<g id="cloud">
</g>
<g id="chess">
</g>
<g id="stopwatch">
</g>
<g id="test">
</g>
<g id="user">
</g>
<g id="social">
</g>
<g id="like">
</g>
<g id="crown">
</g>
<g id="target">
</g>
<g id="images">
</g>
<g id="calendar">
</g>
<g id="newspaper">
</g>
<g id="pencil">
</g>
<g id="email">
</g>
<g id="rocket">
</g>
<g id="trophy">
</g>
<g id="shop">
</g>
<g id="support">
</g>
</svg>